<svg width="348" height="106" viewBox="0 0 348 106" fill="none" xmlns="http://www.w3.org/2000/svg">
<rect width="95" height="106" rx="15" fill="white"/>
<path d="M26.0718 75.0623L16.2038 35.0971C16.1216 34.7641 15.8746 34.4965 15.5492 34.3881L10.0718 32.5623C9.23847 32.2289 7.64322 31.2781 8.0718 29.5623C8.47148 27.9622 9.5718 27.8956 10.0718 28.0623L18.0718 30.0623C19.6718 30.4623 20.0718 31.5623 20.0718 31.5623L21.8546 37.3564C21.9837 37.776 22.3714 38.0623 22.8104 38.0623H68.0718H79.0718C80.0985 38.0623 80.9056 38.8859 81.4403 39.7403C81.9489 40.553 81.9459 41.5562 81.7091 42.4853L75.5718 66.5623C75.1973 67.6738 73.4562 68.7852 72.5793 69.2864C72.2473 69.4762 71.876 69.5786 71.495 69.6104L31.0777 72.9785C30.5655 73.0211 30.2284 73.5322 30.391 74.0199C30.499 74.3438 30.8021 74.5623 31.1436 74.5623H71.0718H71.0721C71.567 74.5624 73.0718 74.5627 73.0718 76.5623C73.0718 78.5623 71.7385 79.0623 71.0718 79.0623H31.5718C28.3718 79.0623 26.5718 76.3956 26.0718 75.0623Z" fill="#05254B"/>
<circle cx="34.0664" cy="85.5625" r="5" fill="#05254B"/>
<circle cx="64.0664" cy="85.5625" r="5" fill="#05254B"/>
<path d="M70.071 59H31C30.4477 59 30 59.4477 30 60V66.3502C30 67.5116 30.9859 68.4287 32.1442 68.345L69.3378 65.6563C70.5028 65.5721 71.348 64.5118 71.1704 63.3574L70.5652 59.424C70.5277 59.1801 70.3178 59 70.071 59Z" fill="#019DF4" stroke="white"/>
<path d="M24.648 47.899H25.908V55H24.648V47.899ZM26.8996 52.984C26.8996 52.582 26.9926 52.222 27.1786 51.904C27.3706 51.586 27.6376 51.337 27.9796 51.157C28.3216 50.971 28.7146 50.878 29.1586 50.878C29.6086 50.878 29.9986 50.971 30.3286 51.157C30.6586 51.337 30.9106 51.586 31.0846 51.904C31.2646 52.222 31.3546 52.582 31.3546 52.984C31.3546 53.386 31.2646 53.749 31.0846 54.073C30.9106 54.391 30.6586 54.643 30.3286 54.829C29.9986 55.015 29.6026 55.108 29.1406 55.108C28.7086 55.108 28.3216 55.024 27.9796 54.856C27.6436 54.688 27.3796 54.445 27.1876 54.127C26.9956 53.809 26.8996 53.428 26.8996 52.984ZM28.1686 52.993C28.1686 53.197 28.2106 53.383 28.2946 53.551C28.3786 53.713 28.4926 53.842 28.6366 53.938C28.7806 54.034 28.9426 54.082 29.1226 54.082C29.3206 54.082 29.4916 54.034 29.6356 53.938C29.7796 53.842 29.8906 53.713 29.9686 53.551C30.0466 53.383 30.0856 53.197 30.0856 52.993C30.0856 52.783 30.0466 52.597 29.9686 52.435C29.8906 52.273 29.7796 52.144 29.6356 52.048C29.4916 51.952 29.3206 51.904 29.1226 51.904C28.9426 51.904 28.7806 51.952 28.6366 52.048C28.4926 52.144 28.3786 52.273 28.2946 52.435C28.2106 52.597 28.1686 52.783 28.1686 52.993ZM34.8132 55.108C34.5792 55.108 34.3482 55.066 34.1202 54.982C33.8982 54.892 33.7122 54.766 33.5622 54.604L33.5982 54.235V56.89H32.3472V50.977H33.4272L33.6072 51.742L33.5082 51.472C33.7122 51.298 33.9402 51.154 34.1922 51.04C34.4442 50.926 34.7352 50.869 35.0652 50.869C35.4312 50.869 35.7582 50.956 36.0462 51.13C36.3342 51.298 36.5592 51.544 36.7212 51.868C36.8892 52.186 36.9732 52.57 36.9732 53.02C36.9732 53.464 36.8802 53.842 36.6942 54.154C36.5082 54.466 36.2532 54.703 35.9292 54.865C35.6052 55.027 35.2332 55.108 34.8132 55.108ZM34.5612 54.118C34.7652 54.118 34.9512 54.073 35.1192 53.983C35.2932 53.893 35.4312 53.767 35.5332 53.605C35.6412 53.437 35.6952 53.248 35.6952 53.038C35.6952 52.816 35.6472 52.624 35.5512 52.462C35.4612 52.294 35.3352 52.165 35.1732 52.075C35.0172 51.979 34.8432 51.931 34.6512 51.931C34.4832 51.931 34.3332 51.955 34.2012 52.003C34.0752 52.045 33.9612 52.111 33.8592 52.201C33.7632 52.285 33.6792 52.393 33.6072 52.525V53.488C33.6552 53.614 33.7242 53.725 33.8142 53.821C33.9042 53.917 34.0122 53.992 34.1382 54.046C34.2702 54.094 34.4112 54.118 34.5612 54.118ZM37.9634 51.067H39.2234V55H37.9634V51.067ZM37.9364 49.672C37.9364 49.486 38.0084 49.333 38.1524 49.213C38.3024 49.093 38.4614 49.033 38.6294 49.033C38.7974 49.033 38.9504 49.093 39.0884 49.213C39.2324 49.333 39.3044 49.486 39.3044 49.672C39.3044 49.858 39.2324 50.011 39.0884 50.131C38.9504 50.245 38.7974 50.302 38.6294 50.302C38.4614 50.302 38.3024 50.245 38.1524 50.131C38.0084 50.011 37.9364 49.858 37.9364 49.672ZM42.123 55.108C41.757 55.108 41.43 55.024 41.142 54.856C40.854 54.682 40.626 54.433 40.458 54.109C40.296 53.785 40.215 53.401 40.215 52.957C40.215 52.513 40.305 52.135 40.485 51.823C40.665 51.511 40.911 51.274 41.223 51.112C41.535 50.95 41.889 50.869 42.285 50.869C42.537 50.869 42.777 50.908 43.005 50.986C43.239 51.064 43.434 51.184 43.59 51.346V51.742V47.899H44.841V55H43.581V54.235L43.68 54.505C43.476 54.673 43.248 54.817 42.996 54.937C42.744 55.051 42.453 55.108 42.123 55.108ZM42.537 54.046C42.705 54.046 42.852 54.025 42.978 53.983C43.11 53.935 43.224 53.869 43.32 53.785C43.422 53.695 43.509 53.584 43.581 53.452V52.489C43.533 52.357 43.458 52.246 43.356 52.156C43.26 52.06 43.14 51.988 42.996 51.94C42.858 51.886 42.705 51.859 42.537 51.859C42.351 51.859 42.177 51.907 42.015 52.003C41.859 52.093 41.733 52.219 41.637 52.381C41.541 52.543 41.493 52.729 41.493 52.939C41.493 53.149 41.541 53.338 41.637 53.506C41.733 53.674 41.859 53.806 42.015 53.902C42.177 53.998 42.351 54.046 42.537 54.046ZM45.8313 52.984C45.8313 52.582 45.9243 52.222 46.1103 51.904C46.3023 51.586 46.5693 51.337 46.9113 51.157C47.2533 50.971 47.6463 50.878 48.0903 50.878C48.5403 50.878 48.9303 50.971 49.2603 51.157C49.5903 51.337 49.8423 51.586 50.0163 51.904C50.1963 52.222 50.2863 52.582 50.2863 52.984C50.2863 53.386 50.1963 53.749 50.0163 54.073C49.8423 54.391 49.5903 54.643 49.2603 54.829C48.9303 55.015 48.5343 55.108 48.0723 55.108C47.6403 55.108 47.2533 55.024 46.9113 54.856C46.5753 54.688 46.3113 54.445 46.1193 54.127C45.9273 53.809 45.8313 53.428 45.8313 52.984ZM47.1003 52.993C47.1003 53.197 47.1423 53.383 47.2263 53.551C47.3103 53.713 47.4243 53.842 47.5683 53.938C47.7123 54.034 47.8743 54.082 48.0543 54.082C48.2523 54.082 48.4233 54.034 48.5673 53.938C48.7113 53.842 48.8223 53.713 48.9003 53.551C48.9783 53.383 49.0173 53.197 49.0173 52.993C49.0173 52.783 48.9783 52.597 48.9003 52.435C48.8223 52.273 48.7113 52.144 48.5673 52.048C48.4233 51.952 48.2523 51.904 48.0543 51.904C47.8743 51.904 47.7123 51.952 47.5683 52.048C47.4243 52.144 47.3103 52.273 47.2263 52.435C47.1423 52.597 47.1003 52.783 47.1003 52.993Z" fill="white"/>
<path d="M52.9349 55.108C52.5689 55.108 52.2359 55.036 51.9359 54.892C51.6419 54.742 51.4079 54.514 51.2339 54.208C51.0599 53.902 50.9729 53.512 50.9729 53.038C50.9729 52.594 51.0629 52.21 51.2429 51.886C51.4229 51.562 51.6599 51.313 51.9539 51.139C52.2479 50.959 52.5599 50.869 52.8899 50.869C53.2799 50.869 53.5739 50.935 53.7719 51.067C53.9759 51.193 54.1439 51.334 54.2759 51.49L54.2219 51.643L54.3389 51.067H55.5089V55H54.2489V54.145L54.3479 54.415C54.3359 54.415 54.2999 54.451 54.2399 54.523C54.1799 54.589 54.0899 54.67 53.9699 54.766C53.8559 54.856 53.7119 54.934 53.5379 55C53.3699 55.072 53.1689 55.108 52.9349 55.108ZM53.2949 54.082C53.4449 54.082 53.5799 54.061 53.6999 54.019C53.8199 53.971 53.9249 53.905 54.0149 53.821C54.1049 53.731 54.1829 53.62 54.2489 53.488V52.525C54.2009 52.393 54.1289 52.282 54.0329 52.192C53.9369 52.096 53.8229 52.024 53.6909 51.976C53.5589 51.922 53.4119 51.895 53.2499 51.895C53.0699 51.895 52.9019 51.943 52.7459 52.039C52.5959 52.129 52.4759 52.255 52.3859 52.417C52.2959 52.579 52.2509 52.765 52.2509 52.975C52.2509 53.185 52.2989 53.374 52.3949 53.542C52.4909 53.71 52.6169 53.842 52.7729 53.938C52.9349 54.034 53.1089 54.082 53.2949 54.082ZM56.8072 55V47.899H58.0402V51.859L58.0312 51.706C58.1692 51.46 58.3642 51.262 58.6162 51.112C58.8682 50.956 59.1772 50.878 59.5432 50.878C59.9152 50.878 60.2242 50.989 60.4702 51.211C60.7222 51.427 60.8512 51.709 60.8572 52.057V55H59.5972V52.525C59.5912 52.351 59.5432 52.213 59.4532 52.111C59.3692 52.003 59.2252 51.949 59.0212 51.949C58.8292 51.949 58.6612 52.012 58.5172 52.138C58.3732 52.264 58.2622 52.435 58.1842 52.651C58.1062 52.867 58.0672 53.116 58.0672 53.398V55H56.8072ZM61.8449 52.984C61.8449 52.582 61.9379 52.222 62.1239 51.904C62.3159 51.586 62.5829 51.337 62.9249 51.157C63.2669 50.971 63.6599 50.878 64.1039 50.878C64.5539 50.878 64.9439 50.971 65.2739 51.157C65.6039 51.337 65.8559 51.586 66.0299 51.904C66.2099 52.222 66.2999 52.582 66.2999 52.984C66.2999 53.386 66.2099 53.749 66.0299 54.073C65.8559 54.391 65.6039 54.643 65.2739 54.829C64.9439 55.015 64.5479 55.108 64.0859 55.108C63.6539 55.108 63.2669 55.024 62.9249 54.856C62.5889 54.688 62.3249 54.445 62.1329 54.127C61.9409 53.809 61.8449 53.428 61.8449 52.984ZM63.1139 52.993C63.1139 53.197 63.1559 53.383 63.2399 53.551C63.3239 53.713 63.4379 53.842 63.5819 53.938C63.7259 54.034 63.8879 54.082 64.0679 54.082C64.2659 54.082 64.4369 54.034 64.5809 53.938C64.7249 53.842 64.8359 53.713 64.9139 53.551C64.9919 53.383 65.0309 53.197 65.0309 52.993C65.0309 52.783 64.9919 52.597 64.9139 52.435C64.8359 52.273 64.7249 52.144 64.5809 52.048C64.4369 51.952 64.2659 51.904 64.0679 51.904C63.8879 51.904 63.7259 51.952 63.5819 52.048C63.4379 52.144 63.3239 52.273 63.2399 52.435C63.1559 52.597 63.1139 52.783 63.1139 52.993ZM68.4265 51.067L68.5435 52.147L68.5165 51.985C68.6305 51.751 68.7865 51.553 68.9845 51.391C69.1825 51.223 69.3775 51.094 69.5695 51.004C69.7675 50.914 69.9175 50.869 70.0195 50.869L69.9565 52.129C69.6625 52.093 69.4105 52.141 69.2005 52.273C68.9905 52.405 68.8285 52.579 68.7145 52.795C68.6005 53.011 68.5435 53.233 68.5435 53.461V55H67.2925V51.067H68.4265ZM72.5081 55.108C72.1421 55.108 71.8091 55.036 71.5091 54.892C71.2151 54.742 70.9811 54.514 70.8071 54.208C70.6331 53.902 70.5461 53.512 70.5461 53.038C70.5461 52.594 70.6361 52.21 70.8161 51.886C70.9961 51.562 71.2331 51.313 71.5271 51.139C71.8211 50.959 72.1331 50.869 72.4631 50.869C72.8531 50.869 73.1471 50.935 73.3451 51.067C73.5491 51.193 73.7171 51.334 73.8491 51.49L73.7951 51.643L73.9121 51.067H75.0821V55H73.8221V54.145L73.9211 54.415C73.9091 54.415 73.8731 54.451 73.8131 54.523C73.7531 54.589 73.6631 54.67 73.5431 54.766C73.4291 54.856 73.2851 54.934 73.1111 55C72.9431 55.072 72.7421 55.108 72.5081 55.108ZM72.8681 54.082C73.0181 54.082 73.1531 54.061 73.2731 54.019C73.3931 53.971 73.4981 53.905 73.5881 53.821C73.6781 53.731 73.7561 53.62 73.8221 53.488V52.525C73.7741 52.393 73.7021 52.282 73.6061 52.192C73.5101 52.096 73.3961 52.024 73.2641 51.976C73.1321 51.922 72.9851 51.895 72.8231 51.895C72.6431 51.895 72.4751 51.943 72.3191 52.039C72.1691 52.129 72.0491 52.255 71.9591 52.417C71.8691 52.579 71.8241 52.765 71.8241 52.975C71.8241 53.185 71.8721 53.374 71.9681 53.542C72.0641 53.71 72.1901 53.842 72.3461 53.938C72.5081 54.034 72.6821 54.082 72.8681 54.082Z" fill="#019DF4"/>
<path d="M106.024 32.862H111.904V66H106.024V32.862ZM116.532 56.592C116.532 54.716 116.966 53.036 117.834 51.552C118.73 50.068 119.976 48.906 121.572 48.066C123.168 47.198 125.002 46.764 127.074 46.764C129.174 46.764 130.994 47.198 132.534 48.066C134.074 48.906 135.25 50.068 136.062 51.552C136.902 53.036 137.322 54.716 137.322 56.592C137.322 58.468 136.902 60.162 136.062 61.674C135.25 63.158 134.074 64.334 132.534 65.202C130.994 66.07 129.146 66.504 126.99 66.504C124.974 66.504 123.168 66.112 121.572 65.328C120.004 64.544 118.772 63.41 117.876 61.926C116.98 60.442 116.532 58.664 116.532 56.592ZM122.454 56.634C122.454 57.586 122.65 58.454 123.042 59.238C123.434 59.994 123.966 60.596 124.638 61.044C125.31 61.492 126.066 61.716 126.906 61.716C127.83 61.716 128.628 61.492 129.3 61.044C129.972 60.596 130.49 59.994 130.854 59.238C131.218 58.454 131.4 57.586 131.4 56.634C131.4 55.654 131.218 54.786 130.854 54.03C130.49 53.274 129.972 52.672 129.3 52.224C128.628 51.776 127.83 51.552 126.906 51.552C126.066 51.552 125.31 51.776 124.638 52.224C123.966 52.672 123.434 53.274 123.042 54.03C122.65 54.786 122.454 55.654 122.454 56.634ZM153.462 66.504C152.37 66.504 151.292 66.308 150.228 65.916C149.192 65.496 148.324 64.908 147.624 64.152L147.792 62.43V74.82H141.954V47.226H146.994L147.834 50.796L147.372 49.536C148.324 48.724 149.388 48.052 150.564 47.52C151.74 46.988 153.098 46.722 154.638 46.722C156.346 46.722 157.872 47.128 159.216 47.94C160.56 48.724 161.61 49.872 162.366 51.384C163.15 52.868 163.542 54.66 163.542 56.76C163.542 58.832 163.108 60.596 162.24 62.052C161.372 63.508 160.182 64.614 158.67 65.37C157.158 66.126 155.422 66.504 153.462 66.504ZM152.286 61.884C153.238 61.884 154.106 61.674 154.89 61.254C155.702 60.834 156.346 60.246 156.822 59.49C157.326 58.706 157.578 57.824 157.578 56.844C157.578 55.808 157.354 54.912 156.906 54.156C156.486 53.372 155.898 52.77 155.142 52.35C154.414 51.902 153.602 51.678 152.706 51.678C151.922 51.678 151.222 51.79 150.606 52.014C150.018 52.21 149.486 52.518 149.01 52.938C148.562 53.33 148.17 53.834 147.834 54.45V58.944C148.058 59.532 148.38 60.05 148.8 60.498C149.22 60.946 149.724 61.296 150.312 61.548C150.928 61.772 151.586 61.884 152.286 61.884ZM168.163 47.646H174.043V66H168.163V47.646ZM168.037 41.136C168.037 40.268 168.373 39.554 169.045 38.994C169.745 38.434 170.487 38.154 171.271 38.154C172.055 38.154 172.769 38.434 173.413 38.994C174.085 39.554 174.421 40.268 174.421 41.136C174.421 42.004 174.085 42.718 173.413 43.278C172.769 43.81 172.055 44.076 171.271 44.076C170.487 44.076 169.745 43.81 169.045 43.278C168.373 42.718 168.037 42.004 168.037 41.136ZM187.574 66.504C185.866 66.504 184.34 66.112 182.996 65.328C181.652 64.516 180.588 63.354 179.804 61.842C179.048 60.33 178.67 58.538 178.67 56.466C178.67 54.394 179.09 52.63 179.93 51.174C180.77 49.718 181.918 48.612 183.374 47.856C184.83 47.1 186.482 46.722 188.33 46.722C189.506 46.722 190.626 46.904 191.69 47.268C192.782 47.632 193.692 48.192 194.42 48.948V50.796V32.862H200.258V66H194.378V62.43L194.84 63.69C193.888 64.474 192.824 65.146 191.648 65.706C190.472 66.238 189.114 66.504 187.574 66.504ZM189.506 61.548C190.29 61.548 190.976 61.45 191.564 61.254C192.18 61.03 192.712 60.722 193.16 60.33C193.636 59.91 194.042 59.392 194.378 58.776V54.282C194.154 53.666 193.804 53.148 193.328 52.728C192.88 52.28 192.32 51.944 191.648 51.72C191.004 51.468 190.29 51.342 189.506 51.342C188.638 51.342 187.826 51.566 187.07 52.014C186.342 52.434 185.754 53.022 185.306 53.778C184.858 54.534 184.634 55.402 184.634 56.382C184.634 57.362 184.858 58.244 185.306 59.028C185.754 59.812 186.342 60.428 187.07 60.876C187.826 61.324 188.638 61.548 189.506 61.548ZM204.879 56.592C204.879 54.716 205.313 53.036 206.181 51.552C207.077 50.068 208.323 48.906 209.919 48.066C211.515 47.198 213.349 46.764 215.421 46.764C217.521 46.764 219.341 47.198 220.881 48.066C222.421 48.906 223.597 50.068 224.409 51.552C225.249 53.036 225.669 54.716 225.669 56.592C225.669 58.468 225.249 60.162 224.409 61.674C223.597 63.158 222.421 64.334 220.881 65.202C219.341 66.07 217.493 66.504 215.337 66.504C213.321 66.504 211.515 66.112 209.919 65.328C208.351 64.544 207.119 63.41 206.223 61.926C205.327 60.442 204.879 58.664 204.879 56.592ZM210.801 56.634C210.801 57.586 210.997 58.454 211.389 59.238C211.781 59.994 212.313 60.596 212.985 61.044C213.657 61.492 214.413 61.716 215.253 61.716C216.177 61.716 216.975 61.492 217.647 61.044C218.319 60.596 218.837 59.994 219.201 59.238C219.565 58.454 219.747 57.586 219.747 56.634C219.747 55.654 219.565 54.786 219.201 54.03C218.837 53.274 218.319 52.672 217.647 52.224C216.975 51.776 216.177 51.552 215.253 51.552C214.413 51.552 213.657 51.776 212.985 52.224C212.313 52.672 211.781 53.274 211.389 54.03C210.997 54.786 210.801 55.654 210.801 56.634Z" fill="white"/>
<path d="M238.029 66.504C236.321 66.504 234.767 66.168 233.367 65.496C231.995 64.796 230.903 63.732 230.091 62.304C229.279 60.876 228.873 59.056 228.873 56.844C228.873 54.772 229.293 52.98 230.133 51.468C230.973 49.956 232.079 48.794 233.451 47.982C234.823 47.142 236.279 46.722 237.819 46.722C239.639 46.722 241.011 47.03 241.935 47.646C242.887 48.234 243.671 48.892 244.287 49.62L244.035 50.334L244.581 47.646H250.041V66H244.161V62.01L244.623 63.27C244.567 63.27 244.399 63.438 244.119 63.774C243.839 64.082 243.419 64.46 242.859 64.908C242.327 65.328 241.655 65.692 240.843 66C240.059 66.336 239.121 66.504 238.029 66.504ZM239.709 61.716C240.409 61.716 241.039 61.618 241.599 61.422C242.159 61.198 242.649 60.89 243.069 60.498C243.489 60.078 243.853 59.56 244.161 58.944V54.45C243.937 53.834 243.601 53.316 243.153 52.896C242.705 52.448 242.173 52.112 241.557 51.888C240.941 51.636 240.255 51.51 239.499 51.51C238.659 51.51 237.875 51.734 237.147 52.182C236.447 52.602 235.887 53.19 235.467 53.946C235.047 54.702 234.837 55.57 234.837 56.55C234.837 57.53 235.061 58.412 235.509 59.196C235.957 59.98 236.545 60.596 237.273 61.044C238.029 61.492 238.841 61.716 239.709 61.716ZM256.1 66V32.862H261.854V51.342L261.812 50.628C262.456 49.48 263.366 48.556 264.542 47.856C265.718 47.128 267.16 46.764 268.868 46.764C270.604 46.764 272.046 47.282 273.194 48.318C274.37 49.326 274.972 50.642 275 52.266V66H269.12V54.45C269.092 53.638 268.868 52.994 268.448 52.518C268.056 52.014 267.384 51.762 266.432 51.762C265.536 51.762 264.752 52.056 264.08 52.644C263.408 53.232 262.89 54.03 262.526 55.038C262.162 56.046 261.98 57.208 261.98 58.524V66H256.1ZM279.61 56.592C279.61 54.716 280.044 53.036 280.912 51.552C281.808 50.068 283.054 48.906 284.65 48.066C286.246 47.198 288.08 46.764 290.152 46.764C292.252 46.764 294.072 47.198 295.612 48.066C297.152 48.906 298.328 50.068 299.14 51.552C299.98 53.036 300.4 54.716 300.4 56.592C300.4 58.468 299.98 60.162 299.14 61.674C298.328 63.158 297.152 64.334 295.612 65.202C294.072 66.07 292.224 66.504 290.068 66.504C288.052 66.504 286.246 66.112 284.65 65.328C283.082 64.544 281.85 63.41 280.954 61.926C280.058 60.442 279.61 58.664 279.61 56.592ZM285.532 56.634C285.532 57.586 285.728 58.454 286.12 59.238C286.512 59.994 287.044 60.596 287.716 61.044C288.388 61.492 289.144 61.716 289.984 61.716C290.908 61.716 291.706 61.492 292.378 61.044C293.05 60.596 293.568 59.994 293.932 59.238C294.296 58.454 294.478 57.586 294.478 56.634C294.478 55.654 294.296 54.786 293.932 54.03C293.568 53.274 293.05 52.672 292.378 52.224C291.706 51.776 290.908 51.552 289.984 51.552C289.144 51.552 288.388 51.776 287.716 52.224C287.044 52.672 286.512 53.274 286.12 54.03C285.728 54.786 285.532 55.654 285.532 56.634ZM310.324 47.646L310.87 52.686L310.744 51.93C311.276 50.838 312.004 49.914 312.928 49.158C313.852 48.374 314.762 47.772 315.658 47.352C316.582 46.932 317.282 46.722 317.758 46.722L317.464 52.602C316.092 52.434 314.916 52.658 313.936 53.274C312.956 53.89 312.2 54.702 311.668 55.71C311.136 56.718 310.87 57.754 310.87 58.818V66H305.032V47.646H310.324ZM329.371 66.504C327.663 66.504 326.109 66.168 324.709 65.496C323.337 64.796 322.245 63.732 321.433 62.304C320.621 60.876 320.215 59.056 320.215 56.844C320.215 54.772 320.635 52.98 321.475 51.468C322.315 49.956 323.421 48.794 324.793 47.982C326.165 47.142 327.621 46.722 329.161 46.722C330.981 46.722 332.353 47.03 333.277 47.646C334.229 48.234 335.013 48.892 335.629 49.62L335.377 50.334L335.923 47.646H341.383V66H335.503V62.01L335.965 63.27C335.909 63.27 335.741 63.438 335.461 63.774C335.181 64.082 334.761 64.46 334.201 64.908C333.669 65.328 332.997 65.692 332.185 66C331.401 66.336 330.463 66.504 329.371 66.504ZM331.051 61.716C331.751 61.716 332.381 61.618 332.941 61.422C333.501 61.198 333.991 60.89 334.411 60.498C334.831 60.078 335.195 59.56 335.503 58.944V54.45C335.279 53.834 334.943 53.316 334.495 52.896C334.047 52.448 333.515 52.112 332.899 51.888C332.283 51.636 331.597 51.51 330.841 51.51C330.001 51.51 329.217 51.734 328.489 52.182C327.789 52.602 327.229 53.19 326.809 53.946C326.389 54.702 326.179 55.57 326.179 56.55C326.179 57.53 326.403 58.412 326.851 59.196C327.299 59.98 327.887 60.596 328.615 61.044C329.371 61.492 330.183 61.716 331.051 61.716Z" fill="#019DF4"/>
<path fill-rule="evenodd" clip-rule="evenodd" d="M34.3374 31.9808C33.8529 31.9808 33.438 32.3282 33.353 32.8052L31.2096 44.8244C31.1003 45.4373 31.5716 46 32.1941 46H67.8472C68.4557 46 68.9231 45.4611 68.8372 44.8588L67.0706 32.4758C67.0301 32.1918 66.7869 31.9808 66.5 31.9808V31.9808H60.7277C60.7277 27.6538 60.2235 19 50 19C41.5 19 40.3333 27.6538 40.5 31.9808H34.3374ZM45.5 31.9808C45.5 29.9038 46.5 26.2692 50 26.2692C55.1094 26.2692 55.5 29.9038 55.5 31.9808L45.5 31.9808Z" fill="#019DF4"/>
<path d="M45.5 31.9808C45.5 29.9038 46.5 26.2692 50 26.2692C55.1094 26.2692 55.5 29.9038 55.5 31.9808M45.5 31.9808L55.5 31.9808M45.5 31.9808C45.5 31.9808 51.79 31.9808 55.5 31.9808M66.5 31.9808V31.9808C66.7869 31.9808 67.0301 32.1918 67.0706 32.4758L68.8372 44.8588C68.9231 45.4611 68.4557 46 67.8472 46H32.1941C31.5716 46 31.1003 45.4373 31.2096 44.8244L33.353 32.8052C33.438 32.3282 33.8529 31.9808 34.3374 31.9808H40.5C40.3333 27.6538 41.5 19 50 19C60.2235 19 60.7277 27.6538 60.7277 31.9808H66.5Z" stroke="#FCFCFC"/>
<path fill-rule="evenodd" clip-rule="evenodd" d="M57.5526 36.1049C57.0083 36.1049 56.9968 37.6154 58.046 37.6154C59.3302 37.6154 59.1183 36.1049 58.5681 36.1049C58.5681 36.1049 59.2656 30.3986 58.5681 28.049C57.8706 25.6993 55.2254 21 50.2244 21C45.2234 21 42.9312 25.6993 42.4103 28.049C41.8893 30.3986 42.4103 36.1049 42.4103 36.1049C41.8862 36.1049 41.681 37.6154 42.9312 37.6154C44.1815 37.6154 43.9699 36.1049 43.4522 36.1049C43.4522 36.1049 43.4791 31.4371 44 29.4231C44.5209 27.4091 46.3325 23.5962 50.5 23.5962C54.6675 23.5962 56.3054 27.4091 57 29.4231C57.6946 31.4371 57.5526 36.1049 57.5526 36.1049Z" fill="#019DF4" stroke="white" stroke-width="0.5"/>
</svg>
