<svg width="181" height="192" viewBox="0 0 181 192" fill="none" xmlns="http://www.w3.org/2000/svg">
<path d="M117.136 74.823C108.789 78.4155 103.329 87.8959 101.643 92.187C120.614 74.823 141.598 77.4836 145.909 79.0142C158.556 83.5049 155.711 93.0851 155.711 99.9708C167.409 88.295 165.558 85.5818 170.888 73.326C175.314 63.147 165.829 40.0942 158.872 34.4065C152.76 33.5083 141.303 35.6035 141.166 38.598C140.85 45.4837 127.57 70.3323 117.136 74.823Z" fill="#163300"/>
<path d="M155.705 29.6153C151.405 28.4178 144.85 32.1101 142.109 34.106C140.528 29.6153 117.763 11.952 86.7766 36.8006C59.9643 58.302 82.9823 94.581 95.946 103.562C85.0692 131.105 108.277 163.139 121.557 173.019C82.097 170.384 59.69 134.199 53.8932 117.633C56.212 130.606 60.8495 158.948 95.946 173.019C124.023 184.275 138.42 175.713 142.109 170.025V126.016C142.109 119.07 132.202 119.13 127.248 120.028V114.34H181V120.028C170.376 119.549 169.196 123.82 169.933 126.016V178.407C134.837 196.969 94.3701 193.676 60.8495 185.293C32.0818 178.099 -4.51912 139.647 0.458055 90.6891C5.43523 41.7308 29.8685 10.2085 80.7744 1.77347C144.328 -8.75723 161.08 31.1122 155.705 29.6153Z" fill="#163300"/>
<path d="M128.202 39.1957C128.202 43.4947 124.805 46.9796 120.614 46.9796C116.423 46.9796 113.025 43.4947 113.025 39.1957C113.025 34.8968 116.423 31.4118 120.614 31.4118C124.805 31.4118 128.202 34.8968 128.202 39.1957Z" fill="#163300"/>
</svg>
