<svg width="1136" height="192" viewBox="0 0 1136 192" fill="none" xmlns="http://www.w3.org/2000/svg">
<path d="M117.136 74.823C108.789 78.4155 103.329 87.8959 101.643 92.187C120.614 74.823 141.598 77.4836 145.909 79.0142C158.556 83.5049 155.711 93.0851 155.711 99.9708C167.409 88.295 165.558 85.5818 170.888 73.326C175.314 63.147 165.829 40.0942 158.872 34.4065C152.76 33.5083 141.303 35.6035 141.166 38.598C140.85 45.4837 127.57 70.3323 117.136 74.823Z" fill="white"/>
<path d="M155.705 29.6153C151.405 28.4178 144.85 32.1101 142.109 34.106C140.528 29.6153 117.763 11.952 86.7766 36.8006C59.9643 58.302 82.9823 94.581 95.946 103.562C85.0692 131.105 108.277 163.139 121.557 173.019C82.097 170.384 59.69 134.199 53.8932 117.633C56.212 130.606 60.8495 158.948 95.946 173.019C124.023 184.275 138.42 175.713 142.109 170.025V126.016C142.109 119.07 132.202 119.13 127.248 120.028V114.34H181V120.028C170.376 119.549 169.196 123.82 169.933 126.016V178.407C134.837 196.969 94.3701 193.676 60.8495 185.293C32.0818 178.099 -4.51912 139.647 0.458055 90.6891C5.43523 41.7308 29.8685 10.2085 80.7744 1.77347C144.328 -8.75723 161.08 31.1122 155.705 29.6153Z" fill="white"/>
<path d="M128.202 39.1957C128.202 43.4947 124.805 46.9796 120.614 46.9796C116.423 46.9796 113.025 43.4947 113.025 39.1957C113.025 34.8968 116.423 31.4118 120.614 31.4118C124.805 31.4118 128.202 34.8968 128.202 39.1957Z" fill="white"/>
<g filter="url(#filter0_d_491_8028)">
<rect x="828" y="41" width="297" height="99" rx="10" fill="#F7FFEB"/>
</g>
<path d="M876.45 90.5C876.45 85.6933 877.523 81.4 879.67 77.62C881.863 73.7933 884.827 70.83 888.56 68.73C892.34 66.5833 896.563 65.51 901.23 65.51C906.69 65.51 911.473 66.91 915.58 69.71C919.687 72.51 922.557 76.3833 924.19 81.33H912.92C911.8 78.9967 910.213 77.2467 908.16 76.08C906.153 74.9133 903.82 74.33 901.16 74.33C898.313 74.33 895.77 75.0067 893.53 76.36C891.337 77.6667 889.61 79.5333 888.35 81.96C887.137 84.3867 886.53 87.2333 886.53 90.5C886.53 93.72 887.137 96.5667 888.35 99.04C889.61 101.467 891.337 103.357 893.53 104.71C895.77 106.017 898.313 106.67 901.16 106.67C903.82 106.67 906.153 106.087 908.16 104.92C910.213 103.707 911.8 101.933 912.92 99.6H924.19C922.557 104.593 919.687 108.49 915.58 111.29C911.52 114.043 906.737 115.42 901.23 115.42C896.563 115.42 892.34 114.37 888.56 112.27C884.827 110.123 881.863 107.16 879.67 103.38C877.523 99.6 876.45 95.3067 876.45 90.5ZM962.52 105.69H943.06L939.84 115H929.55L947.12 66.07H958.53L976.1 115H965.74L962.52 105.69ZM959.86 97.85L952.79 77.41L945.72 97.85H959.86ZM999.538 115.49C996.131 115.49 993.051 114.907 990.298 113.74C987.591 112.573 985.445 110.893 983.858 108.7C982.271 106.507 981.455 103.917 981.408 100.93H991.908C992.048 102.937 992.748 104.523 994.008 105.69C995.315 106.857 997.088 107.44 999.328 107.44C1001.61 107.44 1003.41 106.903 1004.72 105.83C1006.02 104.71 1006.68 103.263 1006.68 101.49C1006.68 100.043 1006.23 98.8533 1005.35 97.92C1004.46 96.9867 1003.34 96.2633 1001.99 95.75C1000.68 95.19 998.861 94.5833 996.528 93.93C993.355 92.9967 990.765 92.0867 988.758 91.2C986.798 90.2667 985.095 88.89 983.648 87.07C982.248 85.2033 981.548 82.73 981.548 79.65C981.548 76.7567 982.271 74.2367 983.718 72.09C985.165 69.9433 987.195 68.31 989.808 67.19C992.421 66.0233 995.408 65.44 998.768 65.44C1003.81 65.44 1007.89 66.6767 1011.02 69.15C1014.19 71.5767 1015.94 74.9833 1016.27 79.37H1005.49C1005.39 77.69 1004.67 76.3133 1003.32 75.24C1002.01 74.12 1000.26 73.56 998.068 73.56C996.155 73.56 994.615 74.05 993.448 75.03C992.328 76.01 991.768 77.4333 991.768 79.3C991.768 80.6067 992.188 81.7033 993.028 82.59C993.915 83.43 994.988 84.13 996.248 84.69C997.555 85.2033 999.375 85.81 1001.71 86.51C1004.88 87.4433 1007.47 88.3767 1009.48 89.31C1011.48 90.2433 1013.21 91.6433 1014.66 93.51C1016.1 95.3767 1016.83 97.8267 1016.83 100.86C1016.83 103.473 1016.15 105.9 1014.8 108.14C1013.44 110.38 1011.46 112.177 1008.85 113.53C1006.23 114.837 1003.13 115.49 999.538 115.49ZM1065.85 66.14V115H1056.05V94.21H1035.12V115H1025.32V66.14H1035.12V86.23H1056.05V66.14H1065.85Z" fill="#819974" style="mix-blend-mode:multiply"/>
<path d="M222 63.8V105.8C222 110 223.033 113.233 225.1 115.5C227.167 117.767 230.2 118.9 234.2 118.9C238.2 118.9 241.267 117.767 243.4 115.5C245.533 113.233 246.6 110 246.6 105.8V63.8H263.7V105.7C263.7 111.967 262.367 117.267 259.7 121.6C257.033 125.933 253.433 129.2 248.9 131.4C244.433 133.6 239.433 134.7 233.9 134.7C228.367 134.7 223.4 133.633 219 131.5C214.667 129.3 211.233 126.033 208.7 121.7C206.167 117.3 204.9 111.967 204.9 105.7V63.8H222ZM319.408 121.6H293.208L289.008 134H271.108L296.508 63.8H316.308L341.708 134H323.608L319.408 121.6ZM315.008 108.4L306.308 82.7L297.708 108.4H315.008ZM346.538 98.8C346.538 91.8667 348.038 85.7 351.038 80.3C354.038 74.8333 358.205 70.6 363.538 67.6C368.938 64.5333 375.038 63 381.838 63C390.172 63 397.305 65.2 403.238 69.6C409.172 74 413.138 80 415.138 87.6H396.338C394.938 84.6667 392.938 82.4333 390.338 80.9C387.805 79.3667 384.905 78.6 381.638 78.6C376.372 78.6 372.105 80.4333 368.838 84.1C365.572 87.7667 363.938 92.6667 363.938 98.8C363.938 104.933 365.572 109.833 368.838 113.5C372.105 117.167 376.372 119 381.638 119C384.905 119 387.805 118.233 390.338 116.7C392.938 115.167 394.938 112.933 396.338 110H415.138C413.138 117.6 409.172 123.6 403.238 128C397.305 132.333 390.172 134.5 381.838 134.5C375.038 134.5 368.938 133 363.538 130C358.205 126.933 354.038 122.7 351.038 117.3C348.038 111.9 346.538 105.733 346.538 98.8ZM469.31 121.6H443.11L438.91 134H421.01L446.41 63.8H466.21L491.61 134H473.51L469.31 121.6ZM464.91 108.4L456.21 82.7L447.61 108.4H464.91ZM578.841 63.8V134H561.741V91.9L546.041 134H532.241L516.441 91.8V134H499.341V63.8H519.541L539.241 112.4L558.741 63.8H578.841ZM634.838 121.6H608.638L604.438 134H586.538L611.938 63.8H631.738L657.138 134H639.038L634.838 121.6ZM630.438 108.4L621.738 82.7L613.138 108.4H630.438ZM725.068 63.8L700.768 110.8V134H683.668V110.8L659.368 63.8H678.768L692.368 93.2L705.868 63.8H725.068ZM775.658 121.6H749.458L745.258 134H727.358L752.758 63.8H772.558L797.958 134H779.858L775.658 121.6ZM771.258 108.4L762.558 82.7L753.958 108.4H771.258Z" fill="white" style="mix-blend-mode:multiply"/>
<defs>
<filter id="filter0_d_491_8028" x="828" y="41" width="308" height="111" filterUnits="userSpaceOnUse" color-interpolation-filters="sRGB">
<feFlood flood-opacity="0" result="BackgroundImageFix"/>
<feColorMatrix in="SourceAlpha" type="matrix" values="0 0 0 0 0 0 0 0 0 0 0 0 0 0 0 0 0 0 127 0" result="hardAlpha"/>
<feMorphology radius="5" operator="dilate" in="SourceAlpha" result="effect1_dropShadow_491_8028"/>
<feOffset dx="6" dy="7"/>
<feComposite in2="hardAlpha" operator="out"/>
<feColorMatrix type="matrix" values="0 0 0 0 0 0 0 0 0 0 0 0 0 0 0 0 0 0 0.14 0"/>
<feBlend mode="normal" in2="BackgroundImageFix" result="effect1_dropShadow_491_8028"/>
<feBlend mode="normal" in="SourceGraphic" in2="effect1_dropShadow_491_8028" result="shape"/>
</filter>
</defs>
</svg>
