<svg width="75" height="72" viewBox="0 0 75 72" fill="none" xmlns="http://www.w3.org/2000/svg">
<path d="M18.0718 56.0623L8.20384 16.0971C8.12164 15.7641 7.87456 15.4965 7.54923 15.3881L2.0718 13.5623C1.23847 13.2289 -0.356778 12.2781 0.0718014 10.5623C0.47148 8.96221 1.5718 8.89562 2.0718 9.06229L10.0718 11.0623C11.6718 11.4623 12.0718 12.5623 12.0718 12.5623L13.8546 18.3564C13.9837 18.776 14.3714 19.0623 14.8104 19.0623H60.0718H71.0718C72.0985 19.0623 72.9056 19.8859 73.4403 20.7403C73.9489 21.553 73.9459 22.5562 73.7091 23.4853L67.5718 47.5623C67.1973 48.6738 65.4562 49.7852 64.5793 50.2864C64.2473 50.4762 63.876 50.5786 63.495 50.6104L23.0777 53.9785C22.5655 54.0211 22.2284 54.5322 22.391 55.0199C22.499 55.3438 22.8021 55.5623 23.1436 55.5623H63.0718H63.0721C63.567 55.5624 65.0718 55.5627 65.0718 57.5623C65.0718 59.5623 63.7385 60.0623 63.0718 60.0623H23.5718C20.3718 60.0623 18.5718 57.3956 18.0718 56.0623Z" fill="#C1D700"/>
<circle cx="26.0664" cy="66.5625" r="5" fill="#C1D700"/>
<circle cx="56.0664" cy="66.5625" r="5" fill="#C1D700"/>
<path fill-rule="evenodd" clip-rule="evenodd" d="M26.3374 12.9808C25.8529 12.9808 25.438 13.3282 25.353 13.8052L23.2096 25.8244C23.1003 26.4373 23.5716 27 24.1941 27H59.8472C60.4557 27 60.9231 26.4611 60.8372 25.8588L59.1225 13.8395C59.0522 13.3468 58.6303 12.9808 58.1325 12.9808H52.7277C52.7277 8.65385 52.2235 0 42 0C33.5 0 32.3333 8.65385 32.5 12.9808H26.3374ZM49.5526 17.1818C49.0083 17.1818 48.9968 18.6923 50.046 18.6923C51.3302 18.6923 51.1183 17.1818 50.5681 17.1818C50.5681 17.1818 51.2656 11.4755 50.5681 9.12588C49.8706 6.77622 47.2254 2.07692 42.2244 2.07692C37.2234 2.07692 34.9312 6.77622 34.4103 9.12588C33.8893 11.4755 34.4103 17.1818 34.4103 17.1818C33.8862 17.1818 33.681 18.6923 34.9312 18.6923C36.1815 18.6923 35.9699 17.1818 35.4522 17.1818C35.4522 17.1818 34.9312 13.1538 35.4522 11.1399C35.9731 9.12588 38.3325 4.67308 42.5 4.67308C46.6675 4.67308 48.858 9.12588 49.5526 11.1399C50.2472 13.1538 49.5526 17.1818 49.5526 17.1818ZM37.5 12.9808C37.5 10.9038 38.5 7.26923 42 7.26923C47.1094 7.26923 47.5 10.9038 47.5 12.9808L37.5 12.9808Z" fill="#DFE000"/>
<path d="M62.071 40H23C22.4477 40 22 40.4477 22 41V47.3502C22 48.5116 22.9859 49.4287 24.1442 49.345L61.3378 46.6563C62.5028 46.5721 63.348 45.5118 63.1704 44.3574L62.5652 40.424C62.5277 40.1801 62.3178 40 62.071 40Z" fill="#DFE000"/>
<path d="M16.648 28.899H17.908V36H16.648V28.899ZM18.8996 33.984C18.8996 33.582 18.9926 33.222 19.1786 32.904C19.3706 32.586 19.6376 32.337 19.9796 32.157C20.3216 31.971 20.7146 31.878 21.1586 31.878C21.6086 31.878 21.9986 31.971 22.3286 32.157C22.6586 32.337 22.9106 32.586 23.0846 32.904C23.2646 33.222 23.3546 33.582 23.3546 33.984C23.3546 34.386 23.2646 34.749 23.0846 35.073C22.9106 35.391 22.6586 35.643 22.3286 35.829C21.9986 36.015 21.6026 36.108 21.1406 36.108C20.7086 36.108 20.3216 36.024 19.9796 35.856C19.6436 35.688 19.3796 35.445 19.1876 35.127C18.9956 34.809 18.8996 34.428 18.8996 33.984ZM20.1686 33.993C20.1686 34.197 20.2106 34.383 20.2946 34.551C20.3786 34.713 20.4926 34.842 20.6366 34.938C20.7806 35.034 20.9426 35.082 21.1226 35.082C21.3206 35.082 21.4916 35.034 21.6356 34.938C21.7796 34.842 21.8906 34.713 21.9686 34.551C22.0466 34.383 22.0856 34.197 22.0856 33.993C22.0856 33.783 22.0466 33.597 21.9686 33.435C21.8906 33.273 21.7796 33.144 21.6356 33.048C21.4916 32.952 21.3206 32.904 21.1226 32.904C20.9426 32.904 20.7806 32.952 20.6366 33.048C20.4926 33.144 20.3786 33.273 20.2946 33.435C20.2106 33.597 20.1686 33.783 20.1686 33.993ZM26.8132 36.108C26.5792 36.108 26.3482 36.066 26.1202 35.982C25.8982 35.892 25.7122 35.766 25.5622 35.604L25.5982 35.235V37.89H24.3472V31.977H25.4272L25.6072 32.742L25.5082 32.472C25.7122 32.298 25.9402 32.154 26.1922 32.04C26.4442 31.926 26.7352 31.869 27.0652 31.869C27.4312 31.869 27.7582 31.956 28.0462 32.13C28.3342 32.298 28.5592 32.544 28.7212 32.868C28.8892 33.186 28.9732 33.57 28.9732 34.02C28.9732 34.464 28.8802 34.842 28.6942 35.154C28.5082 35.466 28.2532 35.703 27.9292 35.865C27.6052 36.027 27.2332 36.108 26.8132 36.108ZM26.5612 35.118C26.7652 35.118 26.9512 35.073 27.1192 34.983C27.2932 34.893 27.4312 34.767 27.5332 34.605C27.6412 34.437 27.6952 34.248 27.6952 34.038C27.6952 33.816 27.6472 33.624 27.5512 33.462C27.4612 33.294 27.3352 33.165 27.1732 33.075C27.0172 32.979 26.8432 32.931 26.6512 32.931C26.4832 32.931 26.3332 32.955 26.2012 33.003C26.0752 33.045 25.9612 33.111 25.8592 33.201C25.7632 33.285 25.6792 33.393 25.6072 33.525V34.488C25.6552 34.614 25.7242 34.725 25.8142 34.821C25.9042 34.917 26.0122 34.992 26.1382 35.046C26.2702 35.094 26.4112 35.118 26.5612 35.118ZM29.9634 32.067H31.2234V36H29.9634V32.067ZM29.9364 30.672C29.9364 30.486 30.0084 30.333 30.1524 30.213C30.3024 30.093 30.4614 30.033 30.6294 30.033C30.7974 30.033 30.9504 30.093 31.0884 30.213C31.2324 30.333 31.3044 30.486 31.3044 30.672C31.3044 30.858 31.2324 31.011 31.0884 31.131C30.9504 31.245 30.7974 31.302 30.6294 31.302C30.4614 31.302 30.3024 31.245 30.1524 31.131C30.0084 31.011 29.9364 30.858 29.9364 30.672ZM34.123 36.108C33.757 36.108 33.43 36.024 33.142 35.856C32.854 35.682 32.626 35.433 32.458 35.109C32.296 34.785 32.215 34.401 32.215 33.957C32.215 33.513 32.305 33.135 32.485 32.823C32.665 32.511 32.911 32.274 33.223 32.112C33.535 31.95 33.889 31.869 34.285 31.869C34.537 31.869 34.777 31.908 35.005 31.986C35.239 32.064 35.434 32.184 35.59 32.346V32.742V28.899H36.841V36H35.581V35.235L35.68 35.505C35.476 35.673 35.248 35.817 34.996 35.937C34.744 36.051 34.453 36.108 34.123 36.108ZM34.537 35.046C34.705 35.046 34.852 35.025 34.978 34.983C35.11 34.935 35.224 34.869 35.32 34.785C35.422 34.695 35.509 34.584 35.581 34.452V33.489C35.533 33.357 35.458 33.246 35.356 33.156C35.26 33.06 35.14 32.988 34.996 32.94C34.858 32.886 34.705 32.859 34.537 32.859C34.351 32.859 34.177 32.907 34.015 33.003C33.859 33.093 33.733 33.219 33.637 33.381C33.541 33.543 33.493 33.729 33.493 33.939C33.493 34.149 33.541 34.338 33.637 34.506C33.733 34.674 33.859 34.806 34.015 34.902C34.177 34.998 34.351 35.046 34.537 35.046ZM37.8313 33.984C37.8313 33.582 37.9243 33.222 38.1103 32.904C38.3023 32.586 38.5693 32.337 38.9113 32.157C39.2533 31.971 39.6463 31.878 40.0903 31.878C40.5403 31.878 40.9303 31.971 41.2603 32.157C41.5903 32.337 41.8423 32.586 42.0163 32.904C42.1963 33.222 42.2863 33.582 42.2863 33.984C42.2863 34.386 42.1963 34.749 42.0163 35.073C41.8423 35.391 41.5903 35.643 41.2603 35.829C40.9303 36.015 40.5343 36.108 40.0723 36.108C39.6403 36.108 39.2533 36.024 38.9113 35.856C38.5753 35.688 38.3113 35.445 38.1193 35.127C37.9273 34.809 37.8313 34.428 37.8313 33.984ZM39.1003 33.993C39.1003 34.197 39.1423 34.383 39.2263 34.551C39.3103 34.713 39.4243 34.842 39.5683 34.938C39.7123 35.034 39.8743 35.082 40.0543 35.082C40.2523 35.082 40.4233 35.034 40.5673 34.938C40.7113 34.842 40.8223 34.713 40.9003 34.551C40.9783 34.383 41.0173 34.197 41.0173 33.993C41.0173 33.783 40.9783 33.597 40.9003 33.435C40.8223 33.273 40.7113 33.144 40.5673 33.048C40.4233 32.952 40.2523 32.904 40.0543 32.904C39.8743 32.904 39.7123 32.952 39.5683 33.048C39.4243 33.144 39.3103 33.273 39.2263 33.435C39.1423 33.597 39.1003 33.783 39.1003 33.993Z" fill="white"/>
<path d="M44.9349 36.108C44.5689 36.108 44.2359 36.036 43.9359 35.892C43.6419 35.742 43.4079 35.514 43.2339 35.208C43.0599 34.902 42.9729 34.512 42.9729 34.038C42.9729 33.594 43.0629 33.21 43.2429 32.886C43.4229 32.562 43.6599 32.313 43.9539 32.139C44.2479 31.959 44.5599 31.869 44.8899 31.869C45.2799 31.869 45.5739 31.935 45.7719 32.067C45.9759 32.193 46.1439 32.334 46.2759 32.49L46.2219 32.643L46.3389 32.067H47.5089V36H46.2489V35.145L46.3479 35.415C46.3359 35.415 46.2999 35.451 46.2399 35.523C46.1799 35.589 46.0899 35.67 45.9699 35.766C45.8559 35.856 45.7119 35.934 45.5379 36C45.3699 36.072 45.1689 36.108 44.9349 36.108ZM45.2949 35.082C45.4449 35.082 45.5799 35.061 45.6999 35.019C45.8199 34.971 45.9249 34.905 46.0149 34.821C46.1049 34.731 46.1829 34.62 46.2489 34.488V33.525C46.2009 33.393 46.1289 33.282 46.0329 33.192C45.9369 33.096 45.8229 33.024 45.6909 32.976C45.5589 32.922 45.4119 32.895 45.2499 32.895C45.0699 32.895 44.9019 32.943 44.7459 33.039C44.5959 33.129 44.4759 33.255 44.3859 33.417C44.2959 33.579 44.2509 33.765 44.2509 33.975C44.2509 34.185 44.2989 34.374 44.3949 34.542C44.4909 34.71 44.6169 34.842 44.7729 34.938C44.9349 35.034 45.1089 35.082 45.2949 35.082ZM48.8072 36V28.899H50.0402V32.859L50.0312 32.706C50.1692 32.46 50.3642 32.262 50.6162 32.112C50.8682 31.956 51.1772 31.878 51.5432 31.878C51.9152 31.878 52.2242 31.989 52.4702 32.211C52.7222 32.427 52.8512 32.709 52.8572 33.057V36H51.5972V33.525C51.5912 33.351 51.5432 33.213 51.4532 33.111C51.3692 33.003 51.2252 32.949 51.0212 32.949C50.8292 32.949 50.6612 33.012 50.5172 33.138C50.3732 33.264 50.2622 33.435 50.1842 33.651C50.1062 33.867 50.0672 34.116 50.0672 34.398V36H48.8072ZM53.8449 33.984C53.8449 33.582 53.9379 33.222 54.1239 32.904C54.3159 32.586 54.5829 32.337 54.9249 32.157C55.2669 31.971 55.6599 31.878 56.1039 31.878C56.5539 31.878 56.9439 31.971 57.2739 32.157C57.6039 32.337 57.8559 32.586 58.0299 32.904C58.2099 33.222 58.2999 33.582 58.2999 33.984C58.2999 34.386 58.2099 34.749 58.0299 35.073C57.8559 35.391 57.6039 35.643 57.2739 35.829C56.9439 36.015 56.5479 36.108 56.0859 36.108C55.6539 36.108 55.2669 36.024 54.9249 35.856C54.5889 35.688 54.3249 35.445 54.1329 35.127C53.9409 34.809 53.8449 34.428 53.8449 33.984ZM55.1139 33.993C55.1139 34.197 55.1559 34.383 55.2399 34.551C55.3239 34.713 55.4379 34.842 55.5819 34.938C55.7259 35.034 55.8879 35.082 56.0679 35.082C56.2659 35.082 56.4369 35.034 56.5809 34.938C56.7249 34.842 56.8359 34.713 56.9139 34.551C56.9919 34.383 57.0309 34.197 57.0309 33.993C57.0309 33.783 56.9919 33.597 56.9139 33.435C56.8359 33.273 56.7249 33.144 56.5809 33.048C56.4369 32.952 56.2659 32.904 56.0679 32.904C55.8879 32.904 55.7259 32.952 55.5819 33.048C55.4379 33.144 55.3239 33.273 55.2399 33.435C55.1559 33.597 55.1139 33.783 55.1139 33.993ZM60.4265 32.067L60.5435 33.147L60.5165 32.985C60.6305 32.751 60.7865 32.553 60.9845 32.391C61.1825 32.223 61.3775 32.094 61.5695 32.004C61.7675 31.914 61.9175 31.869 62.0195 31.869L61.9565 33.129C61.6625 33.093 61.4105 33.141 61.2005 33.273C60.9905 33.405 60.8285 33.579 60.7145 33.795C60.6005 34.011 60.5435 34.233 60.5435 34.461V36H59.2925V32.067H60.4265ZM64.5081 36.108C64.1421 36.108 63.8091 36.036 63.5091 35.892C63.2151 35.742 62.9811 35.514 62.8071 35.208C62.6331 34.902 62.5461 34.512 62.5461 34.038C62.5461 33.594 62.6361 33.21 62.8161 32.886C62.9961 32.562 63.2331 32.313 63.5271 32.139C63.8211 31.959 64.1331 31.869 64.4631 31.869C64.8531 31.869 65.1471 31.935 65.3451 32.067C65.5491 32.193 65.7171 32.334 65.8491 32.49L65.7951 32.643L65.9121 32.067H67.0821V36H65.8221V35.145L65.9211 35.415C65.9091 35.415 65.8731 35.451 65.8131 35.523C65.7531 35.589 65.6631 35.67 65.5431 35.766C65.4291 35.856 65.2851 35.934 65.1111 36C64.9431 36.072 64.7421 36.108 64.5081 36.108ZM64.8681 35.082C65.0181 35.082 65.1531 35.061 65.2731 35.019C65.3931 34.971 65.4981 34.905 65.5881 34.821C65.6781 34.731 65.7561 34.62 65.8221 34.488V33.525C65.7741 33.393 65.7021 33.282 65.6061 33.192C65.5101 33.096 65.3961 33.024 65.2641 32.976C65.1321 32.922 64.9851 32.895 64.8231 32.895C64.6431 32.895 64.4751 32.943 64.3191 33.039C64.1691 33.129 64.0491 33.255 63.9591 33.417C63.8691 33.579 63.8241 33.765 63.8241 33.975C63.8241 34.185 63.8721 34.374 63.9681 34.542C64.0641 34.71 64.1901 34.842 64.3461 34.938C64.5081 35.034 64.6821 35.082 64.8681 35.082Z" fill="#163300"/>
</svg>
