<svg width="32" height="32" viewBox="0 0 32 32" fill="none" xmlns="http://www.w3.org/2000/svg">
<path d="M31 16C31 24.2843 24.2843 31 16 31C7.71573 31 1 24.2843 1 16C1 7.71573 7.71573 1 16 1C24.2843 1 31 7.71573 31 16Z" stroke="#FFE600" stroke-width="2"/>
<path d="M31 16C31 24.2843 24.2843 31 16 31C7.71573 31 1 24.2843 1 16C1 7.71573 7.71573 1 16 1C24.2843 1 31 7.71573 31 16Z" stroke="#FFE600" stroke-width="2"/>
<ellipse cx="22.2167" cy="8.01485" rx="1.26506" ry="1.25899" fill="#FFE600"/>
<ellipse cx="23.4457" cy="24.4895" rx="1.26506" ry="1.25899" fill="#FFE600"/>
<path d="M27.964 16.216C27.964 16.9113 27.3976 17.475 26.6989 17.475C26.0002 17.475 25.4338 16.9113 25.4338 16.216C25.4338 15.5207 26.0002 14.957 26.6989 14.957C27.3976 14.957 27.964 15.5207 27.964 16.216Z" fill="#FFE600"/>
<path d="M16.2516 6.17578L21.9297 19.1396L17.811 18.8105L16.9529 18.7419L17.3185 19.5213L20.1009 25.4513L11.3854 16.3197H15.3856H16.4129L15.7792 15.5112L8.4611 6.17578H16.2516Z" fill="#FFE600" stroke="#F7AA16"/>
</svg>
